# xmcd CD database file
#
# Track frame offsets:
#	183
#	9290
#	28675
#	49893
#	61110
#	71375
#	80938
#	95893
#	109760
#	122495
#	132655
#	147615
#	160908
#	175788
#	188745
#	203845
#
# Disc length: 2910 seconds
#
# Revision: 0
# Processed by: cddbd v1.5.1PL0 Copyright (c) Steve Scherf et al.
# Submitted via: CDex 1.50
#
DISCID=e50b5c10
DTITLE=Frank Sinatra - My Blue Heaven
DYEAR=1991
DGENRE=Jazz
TTITLE0=My blue Heaven
TTITLE1=September Song
TTITLE2=Blues in the night
TTITLE3=My funny Valentine
TTITLE4=It's only a paper moon
TTITLE5=All of me
TTITLE6=Try a little tenderness
TTITLE7=Cheek to cheek
TTITLE8=Blue moon
TTITLE9=Always
TTITLE10=Stormy weather
TTITLE11=September in the rain
TTITLE12=Come fly with me
TTITLE13=Avril in Paris
TTITLE14=Embraceable you
TTITLE15=As time goes by
EXTD=YEAR: 1991
EXTT0=
EXTT1=
EXTT2=
EXTT3=
EXTT4=
EXTT5=
EXTT6=
EXTT7=
EXTT8=
EXTT9=
EXTT10=
EXTT11=
EXTT12=
EXTT13=
EXTT14=
EXTT15=
PLAYORDER=
